<svg id="Layer_1" data-name="Layer 1" xmlns="http://www.w3.org/2000/svg" xmlns:xlink="http://www.w3.org/1999/xlink" viewBox="0 0 300 300"><defs><style>.cls-1,.cls-3{fill:none;}.cls-2{fill:#d1d1d1;opacity:0.4;}.cls-2,.cls-6,.cls-7{isolation:isolate;}.cls-3{stroke:#d3d3d3;stroke-miterlimit:10;}.cls-4{clip-path:url(#clip-path);}.cls-5{fill:#abbfd8;}.cls-6{opacity:0.4;fill:url(#linear-gradient);}.cls-7{fill:#fff;}.cls-8{fill:#d8d8d8;}</style><clipPath id="clip-path"><rect class="cls-1" x="0.77" y="1" width="289" height="289" rx="22.6" ry="22.6"/></clipPath><linearGradient id="linear-gradient" x1="204.29" y1="28.3" x2="120.5" y2="258.5" gradientTransform="matrix(1, 0, 0, -1, 0, 302)" gradientUnits="userSpaceOnUse"><stop offset="0" stop-color="#0e2774"/><stop offset="1" stop-color="#361856" stop-opacity="0"/></linearGradient></defs><title>appGrid</title><path class="cls-2" d="M277.4,300H33.2a22.58,22.58,0,0,1-22.6-22.6V33.2A22.58,22.58,0,0,1,33.2,10.6H277.4A22.58,22.58,0,0,1,300,33.2V277.4A22.58,22.58,0,0,1,277.4,300Z"/><path class="cls-3" d="M267.4,290H23.6A22.58,22.58,0,0,1,1,267.4V23.6A22.58,22.58,0,0,1,23.6,1H267.4A22.58,22.58,0,0,1,290,23.6V267.4A22.58,22.58,0,0,1,267.4,290Z"/><path class="cls-1" d="M267.4,290H23.6A22.58,22.58,0,0,1,1,267.4V23.6A22.58,22.58,0,0,1,23.6,1H267.4A22.58,22.58,0,0,1,290,23.6V267.4A22.58,22.58,0,0,1,267.4,290Z"/><g class="cls-4"><rect class="cls-5" x="0.77" y="1.2" width="288.9" height="288.9"/></g><g class="cls-4"><rect class="cls-6" x="79.53" y="58.42" width="165.73" height="200.37"/><rect class="cls-7" x="61.98" y="42.35" width="165.73" height="200.37"/></g><path class="cls-1" d="M267.4,290H23.6A22.58,22.58,0,0,1,1,267.4V23.6A22.58,22.58,0,0,1,23.6,1H267.4A22.58,22.58,0,0,1,290,23.6V267.4A22.58,22.58,0,0,1,267.4,290Z"/><rect class="cls-8" x="85.56" y="66.42" width="118.58" height="15.89"/><rect class="cls-8" x="85.56" y="111.54" width="118.58" height="15.89"/><rect class="cls-8" x="85.56" y="156.66" width="118.58" height="15.89"/><rect class="cls-8" x="85.56" y="201.78" width="75.49" height="15.89"/></svg>